<?xml version="1.0" encoding="UTF-8" standalone="no"?>
<!-- Created with Inkscape (http://www.inkscape.org/) -->

<svg
   width="40.14843mm"
   height="10.481537mm"
   viewBox="0 0 40.14843 10.481537"
   version="1.1"
   id="svg1904"
   xmlns:inkscape="http://www.inkscape.org/namespaces/inkscape"
   xmlns:sodipodi="http://sodipodi.sourceforge.net/DTD/sodipodi-0.dtd"
   xmlns="http://www.w3.org/2000/svg"
   xmlns:svg="http://www.w3.org/2000/svg">
  <sodipodi:namedview
     id="namedview1906"
     pagecolor="#ffffff"
     bordercolor="#000000"
     borderopacity="0.25"
     inkscape:showpageshadow="2"
     inkscape:pageopacity="0.0"
     inkscape:pagecheckerboard="0"
     inkscape:deskcolor="#d1d1d1"
     inkscape:document-units="mm"
     showgrid="false" />
  <defs
     id="defs1901">
    <filter
       inkscape:collect="always"
       style="color-interpolation-filters:sRGB"
       id="filter3008"
       x="-0.067660324"
       y="-0.42005754"
       width="1.1353205"
       height="1.8401151">
      <feGaussianBlur
         inkscape:collect="always"
         stdDeviation="0.99694884"
         id="feGaussianBlur3010" />
    </filter>
  </defs>
  <g
     inkscape:label="Layer 1"
     inkscape:groupmode="layer"
     id="layer1"
     transform="translate(-74.311388,-142.00077)">
    <g
       aria-label="PETERGÖTZ"
       id="text2996"
       style="font-size:6.35px;line-height:1.25;font-family:Lato;-inkscape-font-specification:'Lato, Normal';display:inline;fill:#c48300;stroke-width:0.264583;filter:url(#filter3008)">
      <path
         d="m 77.316837,148.33688 v 1.7018 h -0.612775 v -4.54977 h 1.343025 q 0.4318,0 0.7493,0.1016 0.320675,0.0984 0.530225,0.28257 0.20955,0.18415 0.31115,0.4445 0.104775,0.26035 0.104775,0.58103 0,0.3175 -0.111125,0.58102 -0.111125,0.26353 -0.327025,0.45403 -0.212725,0.1905 -0.530225,0.29845 -0.3175,0.10477 -0.727075,0.10477 z m 0,-0.48895 h 0.73025 q 0.263525,0 0.46355,-0.0699 0.2032,-0.0699 0.339725,-0.19367 0.136525,-0.127 0.206375,-0.30163 0.06985,-0.17462 0.06985,-0.38417 0,-0.43498 -0.269875,-0.67945 -0.2667,-0.24448 -0.809625,-0.24448 h -0.73025 z"
         id="path2083" />
      <path
         d="m 83.323925,145.48891 v 0.50165 h -2.1844 v 1.5113 H 82.908 v 0.4826 h -1.768475 v 1.55257 h 2.1844 v 0.50165 H 80.5204 v -4.54977 z"
         id="path2085" />
      <path
         d="m 87.308546,145.48891 v 0.51752 h -1.470025 v 4.03225 h -0.61595 v -4.03225 h -1.476375 v -0.51752 z"
         id="path2087" />
      <path
         d="m 90.75976,145.48891 v 0.50165 h -2.1844 v 1.5113 h 1.768475 v 0.4826 H 88.57536 v 1.55257 h 2.1844 v 0.50165 h -2.803525 v -4.54977 z"
         id="path2089" />
      <path
         d="m 92.321856,148.14003 v 1.89865 h -0.612775 v -4.54977 h 1.285875 q 0.4318,0 0.746125,0.0889 0.314325,0.0857 0.517525,0.25082 0.206375,0.1651 0.3048,0.40005 0.09843,0.23178 0.09843,0.5207 0,0.2413 -0.0762,0.45085 -0.0762,0.20955 -0.22225,0.37783 -0.142875,0.1651 -0.352425,0.28257 -0.206375,0.11748 -0.4699,0.1778 0.1143,0.0667 0.2032,0.19368 l 1.32715,1.80657 h -0.5461 q -0.168275,0 -0.24765,-0.13017 l -1.1811,-1.6256 q -0.05398,-0.0762 -0.117475,-0.10795 -0.0635,-0.0349 -0.1905,-0.0349 z m 0,-0.44767 h 0.644525 q 0.269875,0 0.473075,-0.0635 0.206375,-0.0667 0.3429,-0.18415 0.1397,-0.12065 0.20955,-0.28575 0.06985,-0.1651 0.06985,-0.36513 0,-0.4064 -0.269875,-0.61277 -0.2667,-0.20638 -0.796925,-0.20638 h -0.6731 z"
         id="path2091" />
      <path
         d="m 97.763801,149.59101 q 0.18415,0 0.33655,-0.0159 0.155575,-0.019 0.2921,-0.054 0.136525,-0.0349 0.257175,-0.0825 0.12065,-0.0508 0.2413,-0.1143 v -1.0033 h -0.70485 q -0.06033,0 -0.09843,-0.0349 -0.03492,-0.0349 -0.03492,-0.0857 v -0.34925 h 1.397 v 1.74625 q -0.17145,0.12382 -0.358775,0.2159 -0.18415,0.0921 -0.396875,0.15557 -0.20955,0.0603 -0.45085,0.0889 -0.2413,0.0318 -0.523875,0.0318 -0.4953,0 -0.90805,-0.16827 -0.41275,-0.17145 -0.7112,-0.47625 -0.29845,-0.30798 -0.466725,-0.7366 -0.1651,-0.42863 -0.1651,-0.94298 0,-0.5207 0.161925,-0.94932 0.1651,-0.42863 0.466725,-0.73343 0.3048,-0.30797 0.733425,-0.47625 0.4318,-0.16827 0.9652,-0.16827 0.269875,0 0.50165,0.0413 0.231775,0.0381 0.428625,0.1143 0.200025,0.073 0.3683,0.18098 0.168275,0.10477 0.314325,0.23812 l -0.174625,0.2794 q -0.05397,0.0857 -0.1397,0.0857 -0.0508,0 -0.111125,-0.0349 -0.07937,-0.0445 -0.1778,-0.10795 -0.09842,-0.0635 -0.2413,-0.12065 -0.1397,-0.0603 -0.333375,-0.1016 -0.1905,-0.0413 -0.454025,-0.0413 -0.384175,0 -0.695325,0.127 -0.31115,0.12382 -0.530225,0.35877 -0.219075,0.23178 -0.33655,0.56515 -0.117475,0.3302 -0.117475,0.74295 0,0.4318 0.12065,0.77153 0.123825,0.33655 0.346075,0.5715 0.22225,0.23495 0.52705,0.35877 0.3048,0.12383 0.6731,0.12383 z"
         id="path2093" />
      <path
         d="m 104.62179,147.76538 q 0,0.51118 -0.16192,0.9398 -0.16193,0.42545 -0.4572,0.73343 -0.29528,0.30797 -0.7112,0.47942 -0.41275,0.16828 -0.9144,0.16828 -0.50165,0 -0.9144,-0.16828 -0.41275,-0.17145 -0.70802,-0.47942 -0.29528,-0.30798 -0.4572,-0.73343 -0.16193,-0.42862 -0.16193,-0.9398 0,-0.51117 0.16193,-0.93662 0.16192,-0.42863 0.4572,-0.7366 0.29527,-0.31115 0.70802,-0.4826 0.41275,-0.17145 0.9144,-0.17145 0.50165,0 0.9144,0.17145 0.41592,0.17145 0.7112,0.4826 0.29527,0.30797 0.4572,0.7366 0.16192,0.42545 0.16192,0.93662 z m -0.63182,0 q 0,-0.4191 -0.1143,-0.75247 -0.1143,-0.33338 -0.32385,-0.56198 -0.20955,-0.23177 -0.508,-0.3556 -0.29845,-0.12382 -0.66675,-0.12382 -0.36513,0 -0.66357,0.12382 -0.29845,0.12383 -0.51118,0.3556 -0.20955,0.2286 -0.32385,0.56198 -0.1143,0.33337 -0.1143,0.75247 0,0.4191 0.1143,0.75248 0.1143,0.3302 0.32385,0.56197 0.21273,0.2286 0.51118,0.35243 0.29844,0.12065 0.66357,0.12065 0.3683,0 0.66675,-0.12065 0.29845,-0.12383 0.508,-0.35243 0.20955,-0.23177 0.32385,-0.56197 0.1143,-0.33338 0.1143,-0.75248 z m -1.9304,-3.01625 q 0,0.0699 -0.0286,0.13335 -0.0286,0.0603 -0.0762,0.10795 -0.0476,0.0476 -0.1143,0.0762 -0.0635,0.0254 -0.13652,0.0254 -0.0667,0 -0.13017,-0.0254 -0.0603,-0.0286 -0.10795,-0.0762 -0.0476,-0.0476 -0.0762,-0.10795 -0.0286,-0.0635 -0.0286,-0.13335 0,-0.073 0.0286,-0.13652 0.0286,-0.0667 0.0762,-0.1143 0.0476,-0.0476 0.10795,-0.0762 0.0635,-0.0286 0.13017,-0.0286 0.073,0 0.13652,0.0286 0.0667,0.0286 0.1143,0.0762 0.0476,0.0476 0.0762,0.1143 0.0286,0.0635 0.0286,0.13652 z m 1.35255,0 q 0,0.0699 -0.0286,0.13335 -0.0286,0.0603 -0.0762,0.10795 -0.0476,0.0476 -0.11112,0.0762 -0.0635,0.0254 -0.13335,0.0254 -0.073,0 -0.13653,-0.0254 -0.0635,-0.0286 -0.11112,-0.0762 -0.0476,-0.0476 -0.0762,-0.10795 -0.0254,-0.0635 -0.0254,-0.13335 0,-0.073 0.0254,-0.13652 0.0286,-0.0667 0.0762,-0.1143 0.0476,-0.0476 0.11112,-0.0762 0.0635,-0.0286 0.13653,-0.0286 0.0699,0 0.13335,0.0286 0.0635,0.0286 0.11112,0.0762 0.0476,0.0476 0.0762,0.1143 0.0286,0.0635 0.0286,0.13652 z"
         id="path2095" />
      <path
         d="m 108.2508,145.48891 v 0.51752 h -1.47002 v 4.03225 h -0.61595 v -4.03225 h -1.47638 v -0.51752 z"
         id="path2097" />
      <path
         d="m 112.06714,145.48891 v 0.2286 q 0,0.10795 -0.0667,0.2032 l -2.57492,3.61632 h 2.59715 v 0.50165 h -3.4036 v -0.2413 q 0,-0.0952 0.0603,-0.18097 l 2.5781,-3.62585 h -2.51777 v -0.50165 z"
         id="path2099" />
    </g>
    <g
       aria-label="PETERGÖTZ"
       id="text3006"
       style="font-size:6.35px;line-height:1.25;font-family:Lato;-inkscape-font-specification:'Lato, Normal';fill:#ffffff;stroke-width:0.264583">
      <path
         d="m 77.316837,148.33688 v 1.7018 h -0.612775 v -4.54977 h 1.343025 q 0.4318,0 0.7493,0.1016 0.320675,0.0984 0.530225,0.28257 0.20955,0.18415 0.31115,0.4445 0.104775,0.26035 0.104775,0.58103 0,0.3175 -0.111125,0.58102 -0.111125,0.26353 -0.327025,0.45403 -0.212725,0.1905 -0.530225,0.29845 -0.3175,0.10477 -0.727075,0.10477 z m 0,-0.48895 h 0.73025 q 0.263525,0 0.46355,-0.0699 0.2032,-0.0699 0.339725,-0.19367 0.136525,-0.127 0.206375,-0.30163 0.06985,-0.17462 0.06985,-0.38417 0,-0.43498 -0.269875,-0.67945 -0.2667,-0.24448 -0.809625,-0.24448 h -0.73025 z"
         id="path2064" />
      <path
         d="m 83.323925,145.48891 v 0.50165 h -2.1844 v 1.5113 H 82.908 v 0.4826 h -1.768475 v 1.55257 h 2.1844 v 0.50165 H 80.5204 v -4.54977 z"
         id="path2066" />
      <path
         d="m 87.308546,145.48891 v 0.51752 h -1.470025 v 4.03225 h -0.61595 v -4.03225 h -1.476375 v -0.51752 z"
         id="path2068" />
      <path
         d="m 90.75976,145.48891 v 0.50165 h -2.1844 v 1.5113 h 1.768475 v 0.4826 H 88.57536 v 1.55257 h 2.1844 v 0.50165 h -2.803525 v -4.54977 z"
         id="path2070" />
      <path
         d="m 92.321856,148.14003 v 1.89865 h -0.612775 v -4.54977 h 1.285875 q 0.4318,0 0.746125,0.0889 0.314325,0.0857 0.517525,0.25082 0.206375,0.1651 0.3048,0.40005 0.09843,0.23178 0.09843,0.5207 0,0.2413 -0.0762,0.45085 -0.0762,0.20955 -0.22225,0.37783 -0.142875,0.1651 -0.352425,0.28257 -0.206375,0.11748 -0.4699,0.1778 0.1143,0.0667 0.2032,0.19368 l 1.32715,1.80657 h -0.5461 q -0.168275,0 -0.24765,-0.13017 l -1.1811,-1.6256 q -0.05398,-0.0762 -0.117475,-0.10795 -0.0635,-0.0349 -0.1905,-0.0349 z m 0,-0.44767 h 0.644525 q 0.269875,0 0.473075,-0.0635 0.206375,-0.0667 0.3429,-0.18415 0.1397,-0.12065 0.20955,-0.28575 0.06985,-0.1651 0.06985,-0.36513 0,-0.4064 -0.269875,-0.61277 -0.2667,-0.20638 -0.796925,-0.20638 h -0.6731 z"
         id="path2072" />
      <path
         d="m 97.741576,149.26398 q 0.22225,0 0.3937,-0.0381 0.17145,-0.0381 0.32385,-0.1016 v -0.70167 h -0.4572 q -0.1016,0 -0.15875,-0.054 -0.05715,-0.054 -0.05715,-0.13652 v -0.59055 h 1.64465 v 1.95262 q -0.1778,0.13018 -0.371475,0.22543 -0.1905,0.0921 -0.409575,0.1524 -0.2159,0.0603 -0.46355,0.0889 -0.244475,0.0286 -0.52705,0.0286 -0.508,0 -0.9398,-0.1778 -0.4318,-0.18097 -0.7493,-0.4953 -0.314325,-0.3175 -0.4953,-0.7493 -0.1778,-0.43497 -0.1778,-0.94297 0,-0.51753 0.17145,-0.94933 0.17145,-0.43497 0.48895,-0.7493 0.320675,-0.31432 0.771525,-0.48895 0.454025,-0.17462 1.012825,-0.17462 0.288925,0 0.542925,0.0476 0.254,0.0476 0.466725,0.13018 0.2159,0.0825 0.3937,0.19685 0.1778,0.1143 0.3175,0.24765 l -0.31115,0.47307 q -0.04445,0.0667 -0.10795,0.10478 -0.06032,0.0381 -0.13335,0.0381 -0.09525,0 -0.19685,-0.0635 -0.127,-0.0762 -0.2413,-0.13018 -0.111125,-0.0571 -0.2286,-0.0921 -0.117475,-0.0349 -0.24765,-0.0508 -0.130175,-0.0159 -0.2921,-0.0159 -0.301625,0 -0.542925,0.10795 -0.2413,0.10478 -0.41275,0.29845 -0.168275,0.19368 -0.26035,0.46673 -0.09207,0.26987 -0.09207,0.60325 0,0.3683 0.1016,0.65405 0.1016,0.28575 0.2794,0.4826 0.180975,0.19685 0.42545,0.30162 0.24765,0.1016 0.53975,0.1016 z"
         style="font-weight:900;-inkscape-font-specification:'Lato, Heavy'"
         id="path2074" />
      <path
         d="m 104.65037,147.72411 q 0,0.50165 -0.17462,0.93345 -0.17145,0.4318 -0.48578,0.75247 -0.31432,0.3175 -0.75882,0.49848 -0.44133,0.18097 -0.98108,0.18097 -0.53975,0 -0.98425,-0.18097 -0.4445,-0.18098 -0.762,-0.49848 -0.31432,-0.32067 -0.48895,-0.75247 -0.171446,-0.4318 -0.171446,-0.93345 0,-0.50165 0.171446,-0.93345 0.17463,-0.4318 0.48895,-0.7493 0.3175,-0.3175 0.762,-0.49848 0.4445,-0.18097 0.98425,-0.18097 0.53975,0 0.98108,0.18415 0.4445,0.18097 0.75882,0.49847 0.31433,0.3175 0.48578,0.7493 0.17462,0.4318 0.17462,0.93028 z m -1.09855,0 q 0,-0.3429 -0.0889,-0.61595 -0.0889,-0.27623 -0.25717,-0.46673 -0.1651,-0.1905 -0.4064,-0.2921 -0.2413,-0.1016 -0.54928,-0.1016 -0.31115,0 -0.55562,0.1016 -0.2413,0.1016 -0.40958,0.2921 -0.1651,0.1905 -0.254,0.46673 -0.0889,0.27305 -0.0889,0.61595 0,0.34607 0.0889,0.6223 0.0889,0.27305 0.254,0.46355 0.16828,0.1905 0.40958,0.2921 0.24447,0.0984 0.55562,0.0984 0.30798,0 0.54928,-0.0984 0.2413,-0.1016 0.4064,-0.2921 0.16827,-0.1905 0.25717,-0.46355 0.0889,-0.27623 0.0889,-0.6223 z m -1.4986,-2.98133 q 0,0.1016 -0.0413,0.18733 -0.0381,0.0857 -0.10795,0.1524 -0.0699,0.0635 -0.16193,0.1016 -0.0921,0.0349 -0.19685,0.0349 -0.0953,0 -0.18415,-0.0349 -0.0857,-0.0381 -0.1524,-0.1016 -0.0667,-0.0667 -0.10795,-0.1524 -0.0381,-0.0857 -0.0381,-0.18733 0,-0.0984 0.0381,-0.18732 0.0413,-0.0889 0.10795,-0.15558 0.0667,-0.0667 0.1524,-0.10477 0.0889,-0.0381 0.18415,-0.0381 0.10478,0 0.19685,0.0381 0.0921,0.0381 0.16193,0.10477 0.0699,0.0667 0.10795,0.15558 0.0413,0.0889 0.0413,0.18732 z m 1.397,0 q 0,0.1016 -0.0413,0.18733 -0.0381,0.0857 -0.10478,0.1524 -0.0667,0.0635 -0.15875,0.1016 -0.0889,0.0349 -0.1905,0.0349 -0.1016,0 -0.19367,-0.0349 -0.0889,-0.0381 -0.15558,-0.1016 -0.0667,-0.0667 -0.10795,-0.1524 -0.0381,-0.0857 -0.0381,-0.18733 0,-0.0984 0.0381,-0.18732 0.0413,-0.0889 0.10795,-0.15558 0.0667,-0.0667 0.15558,-0.10477 0.0921,-0.0381 0.19367,-0.0381 0.1016,0 0.1905,0.0381 0.0921,0.0381 0.15875,0.10477 0.0667,0.0667 0.10478,0.15558 0.0413,0.0889 0.0413,0.18732 z"
         style="font-weight:900;-inkscape-font-specification:'Lato, Heavy'"
         id="path2076" />
      <path
         d="m 108.33337,145.41271 v 0.8509 h -1.30175 v 3.77507 h -1.07315 v -3.77507 h -1.30175 v -0.8509 z"
         style="font-weight:900;-inkscape-font-specification:'Lato, Heavy'"
         id="path2078" />
      <path
         d="m 112.16241,145.41271 v 0.38735 q 0,0.0825 -0.0286,0.16192 -0.0254,0.0794 -0.073,0.14923 l -2.1717,3.10197 h 2.20345 v 0.8255 h -3.5687 v -0.41275 q 0,-0.073 0.0254,-0.14287 0.0254,-0.073 0.0699,-0.13335 l 2.17805,-3.1115 h -2.0955 v -0.8255 z"
         style="font-weight:900;-inkscape-font-specification:'Lato, Heavy'"
         id="path2080" />
    </g>
  </g>
</svg>
